<svg xmlns="http://www.w3.org/2000/svg" xmlns:xlink="http://www.w3.org/1999/xlink" xmlns:serif="http://www.serif.com/" width="100%" height="100%" viewBox="0 0 295 412" version="1.1" xml:space="preserve" style="fill-rule:evenodd;clip-rule:evenodd;stroke-linejoin:round;stroke-miterlimit:2;"><rect id="Artboard2" x="0" y="0" width="294.367" height="411.22" style="fill:none;"/><clipPath id="_logo_clip1" fill="#000000"><rect x="0" y="0" width="294.367" height="411.22" fill="#000000"/></clipPath><g clip-path="url(#_logo_clip1)"><path d="M0.127,43.798l-0,281.993c-0,11.616 4.614,22.756 12.828,30.969c8.213,8.214 19.353,12.828 30.969,12.828l158.113,0c0.077,0 0.153,0 0.23,-0l33.524,32.062c6.652,6.363 15.561,9.822 24.764,9.617c9.204,-0.205 17.949,-4.057 24.312,-10.71c-0,-0 0,-0 0,-0c6.363,-6.653 9.823,-15.561 9.618,-24.765c-0.206,-9.204 -4.058,-17.949 -10.711,-24.312l-37.939,-36.285l-0,-271.397c-0,-11.616 -4.615,-22.756 -12.828,-30.97c-8.214,-8.214 -19.354,-12.828 -30.97,-12.828l-158.113,0c-11.616,0 -22.756,4.614 -30.969,12.828c-8.214,8.214 -12.828,19.354 -12.828,30.97Zm123.298,168.417c2.557,-0 4.966,1.33 6.508,3.593c1.541,2.263 2.037,5.197 1.339,7.926c-5.78,22.597 -18.739,73.26 -26.749,104.577c-0.519,2.03 0.373,4.177 2.102,5.058c1.729,0.88 3.778,0.231 4.828,-1.529c24.739,-41.499 76.125,-127.696 96.28,-161.505c1.656,-2.778 1.803,-6.342 0.381,-9.276c-1.422,-2.934 -4.182,-4.764 -7.185,-4.764l-79.952,-0c-2.557,-0 -4.966,-1.331 -6.508,-3.594c-1.541,-2.263 -2.037,-5.197 -1.339,-7.925c5.78,-22.598 18.738,-73.26 26.749,-104.577c0.519,-2.031 -0.373,-4.178 -2.102,-5.058c-1.729,-0.881 -3.778,-0.232 -4.828,1.529c-24.739,41.499 -76.125,127.695 -96.28,161.504c-1.657,2.779 -1.803,6.342 -0.381,9.277c1.422,2.934 4.182,4.764 7.185,4.764l79.952,-0Z" style="fill:#ffbd00;"/></g></svg>